<svg xmlns="http://www.w3.org/2000/svg" xmlns:svg="http://www.w3.org/2000/svg" id="svg2" width="177.057" height="56.784" version="1.1" viewBox="0 0 165.991 53.235"><metadata id="metadata7"/><g id="layer1" transform="translate(-138.8815,-336.25359)"><g id="g4348"><g id="g4191"><path id="path4143" d="m 169.02881,355.1689 -10.188,0 -1.08,10.296 -5.184,0 2.7,-25.668 15.372,0 -1.62,15.372 z m -4.572,-5.148 0.504,-5.076 -5.076,0 -0.54,5.076 5.112,0 z m -11.808,-7.704 -10.224,0 0.252,-2.52 10.224,0 -0.252,2.52 z m -0.54,5.148 -8.532,0 0.288,-2.52 8.496,0 -0.252,2.52 z m -0.54,5.148 -6.804,0 0.252,-2.52 6.804,0 -0.252,2.52 z m -0.54,5.112 -5.076,0 0.252,-2.52 5.076,0 -0.252,2.52 z m -0.54,5.148 -3.384,0 0.288,-2.52 3.348,0 -0.252,2.52 z" style="font-style:normal;font-variant:normal;font-weight:400;font-stretch:normal;font-size:medium;line-height:125%;font-family:'Electric Boots';-inkscape-font-specification:'Electric Boots';text-align:start;letter-spacing:0;word-spacing:0;writing-mode:lr-tb;text-anchor:start;fill:#000;fill-opacity:1;stroke:none;stroke-width:1px;stroke-linecap:butt;stroke-linejoin:miter;stroke-opacity:1"/><path id="path4145" d="m 184.84574,365.4649 -5.112,0 0.324,-3.312 -2.664,-6.984 -1.692,0 -1.08,10.296 -5.184,0 2.7,-25.668 15.372,0 -1.62,15.372 -2.412,0 1.836,5.58 -0.468,4.716 z m -3.528,-15.444 0.504,-5.076 -5.076,0 -0.54,5.076 5.112,0 z" style="font-style:normal;font-variant:normal;font-weight:400;font-stretch:normal;font-size:medium;line-height:125%;font-family:'Electric Boots';-inkscape-font-specification:'Electric Boots';text-align:start;letter-spacing:0;word-spacing:0;writing-mode:lr-tb;text-anchor:start;fill:#000;fill-opacity:1;stroke:none;stroke-width:1px;stroke-linecap:butt;stroke-linejoin:miter;stroke-opacity:1"/><path id="path4147" d="m 202.45818,365.4649 -15.372,0 2.7,-25.668 15.372,0 -2.7,25.668 z m -4.572,-5.148 1.584,-15.372 -5.076,0 -1.62,15.372 5.112,0 z" style="font-style:normal;font-variant:normal;font-weight:400;font-stretch:normal;font-size:medium;line-height:125%;font-family:'Electric Boots';-inkscape-font-specification:'Electric Boots';text-align:start;letter-spacing:0;word-spacing:0;writing-mode:lr-tb;text-anchor:start;fill:#000;fill-opacity:1;stroke:none;stroke-width:1px;stroke-linecap:butt;stroke-linejoin:miter;stroke-opacity:1"/><path id="path4149" d="m 220.10662,365.4649 -15.372,0 2.7,-25.668 15.372,0 -0.54,5.076 -10.224,0 -1.62,15.444 5.112,0 0.54,-5.076 -2.556,0 0.54,-5.148 7.668,0 -1.62,15.372 z" style="font-style:normal;font-variant:normal;font-weight:400;font-stretch:normal;font-size:medium;line-height:125%;font-family:'Electric Boots';-inkscape-font-specification:'Electric Boots';text-align:start;letter-spacing:0;word-spacing:0;writing-mode:lr-tb;text-anchor:start;fill:#000;fill-opacity:1;stroke:none;stroke-width:1px;stroke-linecap:butt;stroke-linejoin:miter;stroke-opacity:1"/><path id="path4151" d="m 237.79106,365.4649 -5.112,0 0.324,-3.312 -2.664,-6.984 -1.692,0 -1.08,10.296 -5.184,0 2.7,-25.668 15.372,0 -1.62,15.372 -2.412,0 1.836,5.58 -0.468,4.716 z m -3.528,-15.444 0.504,-5.076 -5.076,0 -0.54,5.076 5.112,0 z" style="font-style:normal;font-variant:normal;font-weight:400;font-stretch:normal;font-size:medium;line-height:125%;font-family:'Electric Boots';-inkscape-font-specification:'Electric Boots';text-align:start;letter-spacing:0;word-spacing:0;writing-mode:lr-tb;text-anchor:start;fill:#000;fill-opacity:1;stroke:none;stroke-width:1px;stroke-linecap:butt;stroke-linejoin:miter;stroke-opacity:1"/><path id="path4153" d="m 255.40349,365.4649 -15.372,0 2.7,-25.668 15.372,0 -0.54,5.076 -10.224,0 -0.54,5.112 10.26,0 -0.576,5.184 -10.224,0 -0.54,5.112 10.26,0 -0.576,5.184 z" style="font-style:normal;font-variant:normal;font-weight:400;font-stretch:normal;font-size:medium;line-height:125%;font-family:'Electric Boots';-inkscape-font-specification:'Electric Boots';text-align:start;letter-spacing:0;word-spacing:0;writing-mode:lr-tb;text-anchor:start;fill:#000;fill-opacity:1;stroke:none;stroke-width:1px;stroke-linecap:butt;stroke-linejoin:miter;stroke-opacity:1"/><path id="path4155" d="m 272.63006,365.4649 -15.372,0 0.54,-5.112 10.26,0 0.54,-5.112 -10.26,0 1.62,-15.444 15.372,0 -0.54,5.076 -10.224,0 -0.54,5.112 10.26,0 -1.656,15.48 z" style="font-style:normal;font-variant:normal;font-weight:400;font-stretch:normal;font-size:medium;line-height:125%;font-family:'Electric Boots';-inkscape-font-specification:'Electric Boots';text-align:start;letter-spacing:0;word-spacing:0;writing-mode:lr-tb;text-anchor:start;fill:#000;fill-opacity:1;stroke:none;stroke-width:1px;stroke-linecap:butt;stroke-linejoin:miter;stroke-opacity:1"/><path id="path4157" d="m 290.27849,365.4649 -15.372,0 0.54,-5.112 10.26,0 0.54,-5.112 -10.26,0 1.62,-15.444 15.372,0 -0.54,5.076 -10.224,0 -0.54,5.112 10.26,0 -1.656,15.48 z" style="font-style:normal;font-variant:normal;font-weight:400;font-stretch:normal;font-size:medium;line-height:125%;font-family:'Electric Boots';-inkscape-font-specification:'Electric Boots';text-align:start;letter-spacing:0;word-spacing:0;writing-mode:lr-tb;text-anchor:start;fill:#000;fill-opacity:1;stroke:none;stroke-width:1px;stroke-linecap:butt;stroke-linejoin:miter;stroke-opacity:1"/></g><g id="g4328" transform="translate(-0.49946499,-0.24973254)"><g id="g4310"><path id="path4280" d="m 167.16147,374.75152 -16.22484,0 0.56996,-5.076 16.22484,0 -0.56996,5.076 z" style="font-style:normal;font-variant:normal;font-weight:400;font-stretch:normal;font-size:medium;line-height:125%;font-family:'Electric Boots';-inkscape-font-specification:'Electric Boots';text-align:start;letter-spacing:0;word-spacing:0;writing-mode:lr-tb;text-anchor:start;fill:#000;fill-opacity:1;stroke:none;stroke-width:1px;stroke-linecap:butt;stroke-linejoin:miter;stroke-opacity:1"/><path id="path4251" d="m 166.02155,381.79886 -16.22484,0 0.56996,-5.112 16.22484,0 -0.56996,5.112 z" style="font-style:normal;font-variant:normal;font-weight:400;font-stretch:normal;font-size:medium;line-height:125%;font-family:'Electric Boots';-inkscape-font-specification:'Electric Boots';text-align:start;letter-spacing:0;word-spacing:0;writing-mode:lr-tb;text-anchor:start;fill:#000;fill-opacity:1;stroke:none;stroke-width:1px;stroke-linecap:butt;stroke-linejoin:miter;stroke-opacity:1"/><path id="path4284" d="m 184.75006,374.75152 -16.22484,0 0.56996,-5.076 16.22484,0 -0.56996,5.076 z" style="font-style:normal;font-variant:normal;font-weight:400;font-stretch:normal;font-size:medium;line-height:125%;font-family:'Electric Boots';-inkscape-font-specification:'Electric Boots';text-align:start;letter-spacing:0;word-spacing:0;writing-mode:lr-tb;text-anchor:start;fill:#000;fill-opacity:1;stroke:none;stroke-width:1px;stroke-linecap:butt;stroke-linejoin:miter;stroke-opacity:1"/><path id="path4253" d="m 183.61014,381.79886 -16.22484,0 0.56996,-5.112 16.22484,0 -0.56996,5.112 z" style="font-style:normal;font-variant:normal;font-weight:400;font-stretch:normal;font-size:medium;line-height:125%;font-family:'Electric Boots';-inkscape-font-specification:'Electric Boots';text-align:start;letter-spacing:0;word-spacing:0;writing-mode:lr-tb;text-anchor:start;fill:#000;fill-opacity:1;stroke:none;stroke-width:1px;stroke-linecap:butt;stroke-linejoin:miter;stroke-opacity:1"/><path id="path4288" d="m 202.33865,374.75152 -16.22484,0 0.56996,-5.076 16.22484,0 -0.56996,5.076 z" style="font-style:normal;font-variant:normal;font-weight:400;font-stretch:normal;font-size:medium;line-height:125%;font-family:'Electric Boots';-inkscape-font-specification:'Electric Boots';text-align:start;letter-spacing:0;word-spacing:0;writing-mode:lr-tb;text-anchor:start;fill:#000;fill-opacity:1;stroke:none;stroke-width:1px;stroke-linecap:butt;stroke-linejoin:miter;stroke-opacity:1"/><path id="path4255" d="m 201.19873,381.79886 -16.22484,0 0.56996,-5.112 16.22484,0 -0.56996,5.112 z" style="font-style:normal;font-variant:normal;font-weight:400;font-stretch:normal;font-size:medium;line-height:125%;font-family:'Electric Boots';-inkscape-font-specification:'Electric Boots';text-align:start;letter-spacing:0;word-spacing:0;writing-mode:lr-tb;text-anchor:start;fill:#000;fill-opacity:1;stroke:none;stroke-width:1px;stroke-linecap:butt;stroke-linejoin:miter;stroke-opacity:1"/><path id="path4292" d="m 219.92725,374.75152 -16.22484,0 0.56996,-5.076 16.22484,0 -0.56996,5.076 z" style="font-style:normal;font-variant:normal;font-weight:400;font-stretch:normal;font-size:medium;line-height:125%;font-family:'Electric Boots';-inkscape-font-specification:'Electric Boots';text-align:start;letter-spacing:0;word-spacing:0;writing-mode:lr-tb;text-anchor:start;fill:#000;fill-opacity:1;stroke:none;stroke-width:1px;stroke-linecap:butt;stroke-linejoin:miter;stroke-opacity:1"/><path id="path4257" d="m 218.78733,381.79886 -16.22484,0 0.56996,-5.112 16.22484,0 -0.56996,5.112 z" style="font-style:normal;font-variant:normal;font-weight:400;font-stretch:normal;font-size:medium;line-height:125%;font-family:'Electric Boots';-inkscape-font-specification:'Electric Boots';text-align:start;letter-spacing:0;word-spacing:0;writing-mode:lr-tb;text-anchor:start;fill:#000;fill-opacity:1;stroke:none;stroke-width:1px;stroke-linecap:butt;stroke-linejoin:miter;stroke-opacity:1"/><path id="path4296" d="m 237.51584,374.75152 -16.22484,0 0.56996,-5.076 16.22484,0 -0.56996,5.076 z" style="font-style:normal;font-variant:normal;font-weight:400;font-stretch:normal;font-size:medium;line-height:125%;font-family:'Electric Boots';-inkscape-font-specification:'Electric Boots';text-align:start;letter-spacing:0;word-spacing:0;writing-mode:lr-tb;text-anchor:start;fill:#000;fill-opacity:1;stroke:none;stroke-width:1px;stroke-linecap:butt;stroke-linejoin:miter;stroke-opacity:1"/><path id="path4259" d="m 236.37593,381.79886 -16.22485,0 0.56996,-5.112 16.22484,0 -0.56995,5.112 z" style="font-style:normal;font-variant:normal;font-weight:400;font-stretch:normal;font-size:medium;line-height:125%;font-family:'Electric Boots';-inkscape-font-specification:'Electric Boots';text-align:start;letter-spacing:0;word-spacing:0;writing-mode:lr-tb;text-anchor:start;fill:#000;fill-opacity:1;stroke:none;stroke-width:1px;stroke-linecap:butt;stroke-linejoin:miter;stroke-opacity:1"/><path id="path4300" d="m 255.10443,374.75152 -16.22484,0 0.56996,-5.076 16.22484,0 -0.56996,5.076 z" style="font-style:normal;font-variant:normal;font-weight:400;font-stretch:normal;font-size:medium;line-height:125%;font-family:'Electric Boots';-inkscape-font-specification:'Electric Boots';text-align:start;letter-spacing:0;word-spacing:0;writing-mode:lr-tb;text-anchor:start;fill:#000;fill-opacity:1;stroke:none;stroke-width:1px;stroke-linecap:butt;stroke-linejoin:miter;stroke-opacity:1"/><path id="path4261" d="m 253.96452,381.79886 -16.22485,0 0.56996,-5.112 16.22484,0 -0.56995,5.112 z" style="font-style:normal;font-variant:normal;font-weight:400;font-stretch:normal;font-size:medium;line-height:125%;font-family:'Electric Boots';-inkscape-font-specification:'Electric Boots';text-align:start;letter-spacing:0;word-spacing:0;writing-mode:lr-tb;text-anchor:start;fill:#000;fill-opacity:1;stroke:none;stroke-width:1px;stroke-linecap:butt;stroke-linejoin:miter;stroke-opacity:1"/><path id="path4304" d="m 272.69302,374.75152 -16.22484,0 0.56996,-5.076 16.22484,0 -0.56996,5.076 z" style="font-style:normal;font-variant:normal;font-weight:400;font-stretch:normal;font-size:medium;line-height:125%;font-family:'Electric Boots';-inkscape-font-specification:'Electric Boots';text-align:start;letter-spacing:0;word-spacing:0;writing-mode:lr-tb;text-anchor:start;fill:#000;fill-opacity:1;stroke:none;stroke-width:1px;stroke-linecap:butt;stroke-linejoin:miter;stroke-opacity:1"/><path id="path4263" d="m 271.55311,381.79886 -16.22485,0 0.56996,-5.112 16.22485,0 -0.56996,5.112 z" style="font-style:normal;font-variant:normal;font-weight:400;font-stretch:normal;font-size:medium;line-height:125%;font-family:'Electric Boots';-inkscape-font-specification:'Electric Boots';text-align:start;letter-spacing:0;word-spacing:0;writing-mode:lr-tb;text-anchor:start;fill:#000;fill-opacity:1;stroke:none;stroke-width:1px;stroke-linecap:butt;stroke-linejoin:miter;stroke-opacity:1"/><path id="path4308" d="m 290.28163,374.75152 -16.22485,0 0.56996,-5.076 16.22485,0 -0.56996,5.076 z" style="font-style:normal;font-variant:normal;font-weight:400;font-stretch:normal;font-size:medium;line-height:125%;font-family:'Electric Boots';-inkscape-font-specification:'Electric Boots';text-align:start;letter-spacing:0;word-spacing:0;writing-mode:lr-tb;text-anchor:start;fill:#000;fill-opacity:1;stroke:none;stroke-width:1px;stroke-linecap:butt;stroke-linejoin:miter;stroke-opacity:1"/><path id="path4265" d="m 289.14171,381.79886 -16.22485,0 0.56996,-5.112 16.22485,0 -0.56996,5.112 z" style="font-style:normal;font-variant:normal;font-weight:400;font-stretch:normal;font-size:medium;line-height:125%;font-family:'Electric Boots';-inkscape-font-specification:'Electric Boots';text-align:start;letter-spacing:0;word-spacing:0;writing-mode:lr-tb;text-anchor:start;fill:#000;fill-opacity:1;stroke:none;stroke-width:1px;stroke-linecap:butt;stroke-linejoin:miter;stroke-opacity:1"/></g><path style="font-style:normal;font-variant:normal;font-weight:400;font-stretch:normal;font-size:medium;line-height:125%;font-family:'Electric Boots';-inkscape-font-specification:'Electric Boots';text-align:start;letter-spacing:0;word-spacing:0;writing-mode:lr-tb;text-anchor:start;fill:#000;fill-opacity:1;stroke:none;stroke-width:1px;stroke-linecap:butt;stroke-linejoin:miter;stroke-opacity:1" id="path4267" d="m 292.21533,367.72719 3.26777,7.992 -5.01565,7.992 4.52168,2.484 6.83952,-10.476 -4.52168,-10.44 -5.09164,2.448 z"/></g></g></g></svg>