<svg xmlns="http://www.w3.org/2000/svg" xmlns:xlink="http://www.w3.org/1999/xlink" width="840" height="148.55"><rect width="840" height="148.55" class="a" rx="0" ry="0"/><svg xmlns="http://www.w3.org/2000/svg" xmlns:xlink="http://www.w3.org/1999/xlink" width="800" height="108.55" x="20" y="20" viewBox="0 0 80 10.855"><style>.a{fill:#161b22}.b{font-family:&apos;Fira Code&apos;,Monaco,Consolas,Menlo,&apos;Bitstream Vera Sans Mono&apos;,&apos;Powerline Symbols&apos;,monospace}.c{fill:transparent}.d{fill:#c9d1d9;white-space:pre}</style><g class="b" font-family="'Fira Code',Monaco,Consolas,Menlo,'Bitstream Vera Sans Mono','Powerline Symbols',monospace" font-size="1.67"><defs><symbol id="a"><rect width="80" height="5" x="0" y="0" class="c"/></symbol></defs><rect width="80" height="10.855" class="a"/><svg width="80" x="0" y="0"><svg x="0"><use xlink:href="#a"/><text x="13.026" y="1.67" class="d" font-size="1.67">Sepal.Length</text><text x="26.052" y="1.67" class="d" font-size="1.67">Sepal.Width</text><text x="38.076" y="1.67" class="d" font-size="1.67">Petal.Length</text><text x="51.102" y="1.67" class="d" font-size="1.67">Petal.Width</text><text x="0" y="3.841" class="d" font-size="1.67">Sepal.Length</text><text x="16.032" y="3.841" class="d" font-size="1.67">0.6856935</text><text x="27.054" y="3.841" class="d" font-size="1.67">-0.0424340</text><text x="41.082" y="3.841" class="d" font-size="1.67">1.2743154</text><text x="53.106" y="3.841" class="d" font-size="1.67">0.5162707</text><text x="0" y="6.012" class="d" font-size="1.67">Sepal.Width</text><text x="15.03" y="6.012" class="d" font-size="1.67">-0.0424340</text><text x="28.056" y="6.012" class="d" font-size="1.67">0.1899794</text><text x="40.08" y="6.012" class="d" font-size="1.67">-0.3296564</text><text x="52.104" y="6.012" class="d" font-size="1.67">-0.1216394</text><text x="0" y="8.183" class="d" font-size="1.67">Petal.Length</text><text x="16.032" y="8.183" class="d" font-size="1.67">1.2743154</text><text x="27.054" y="8.183" class="d" font-size="1.67">-0.3296564</text><text x="41.082" y="8.183" class="d" font-size="1.67">3.1162779</text><text x="53.106" y="8.183" class="d" font-size="1.67">1.2956094</text><text x="0" y="10.354" class="d" font-size="1.67">Petal.Width</text><text x="16.032" y="10.354" class="d" font-size="1.67">0.5162707</text><text x="27.054" y="10.354" class="d" font-size="1.67">-0.1216394</text><text x="41.082" y="10.354" class="d" font-size="1.67">1.2956094</text><text x="53.106" y="10.354" class="d" font-size="1.67">0.5810063</text></svg></svg></g></svg></svg>