<svg xmlns="http://www.w3.org/2000/svg" xmlns:xlink="http://www.w3.org/1999/xlink" width="840" height="61.71"><rect width="840" height="61.71" class="a" rx="0" ry="0"/><svg xmlns="http://www.w3.org/2000/svg" xmlns:xlink="http://www.w3.org/1999/xlink" width="800" height="21.71" x="20" y="20" viewBox="0 0 80 2.171"><style>@keyframes e{0%{transform:translateX(-480px)}1.9%{transform:translateX(-880px)}3.8%{transform:translateX(-1280px)}5.7%{transform:translateX(-1680px)}7.6%{transform:translateX(-2080px)}9.5%{transform:translateX(-2480px)}11.3%{transform:translateX(-2880px)}13.3%{transform:translateX(-3280px)}15.2%{transform:translateX(-3680px)}17.1%{transform:translateX(-4080px)}19%{transform:translateX(-4480px)}20.9%{transform:translateX(-4880px)}22.8%{transform:translateX(-5280px)}24.7%{transform:translateX(-5680px)}26.6%{transform:translateX(-6080px)}28.5%{transform:translateX(-6480px)}30.4%{transform:translateX(-6880px)}32.3%{transform:translateX(-7280px)}34.2%{transform:translateX(-7680px)}36.1%{transform:translateX(-8080px)}38%{transform:translateX(-8480px)}39.9%{transform:translateX(-8880px)}41.8%{transform:translateX(-9280px)}43.7%{transform:translateX(-9680px)}45.6%{transform:translateX(-10080px)}47.5%{transform:translateX(-10240px)}}.a{fill:#f1f3f5}.b{font-family:&apos;Fira Code&apos;,Monaco,Consolas,Menlo,&apos;Bitstream Vera Sans Mono&apos;,&apos;Powerline Symbols&apos;,monospace}.c{fill:#172431;white-space:pre}.d{fill:transparent}.f{animation-duration:11.42188s;animation-iteration-count:infinite;animation-name:e;animation-timing-function:steps(1,end)}</style><g class="b" font-family="'Fira Code',Monaco,Consolas,Menlo,'Bitstream Vera Sans Mono','Powerline Symbols',monospace" font-size="1.67"><defs><symbol id="1"><text x="0" y="1.67" class="c" font-size="1.67">Downloading</text><text x="12.024" y="1.67" class="c" font-size="1.67">.</text></symbol><symbol id="2"><text x="0" y="1.67" class="c" font-size="1.67">Downloading</text><text x="12.024" y="1.67" class="c" font-size="1.67">..</text></symbol><symbol id="3"><text x="0" y="1.67" class="c" font-size="1.67">Downloading</text><text x="12.024" y="1.67" class="c" font-size="1.67">...</text></symbol><symbol id="4"><text x="0" y="1.67" class="c" font-size="1.67">Downloading</text><text x="13.026" y="1.67" class="c" font-size="1.67">..</text></symbol><symbol id="5"><text x="0" y="1.67" class="c" font-size="1.67">Downloading</text><text x="14.028" y="1.67" class="c" font-size="1.67">.</text></symbol><symbol id="6"><text x="0" y="1.67" class="c" font-size="1.67">Downloading</text></symbol><symbol id="a"><rect width="80" height="1" x="0" y="0" class="d"/></symbol></defs><rect width="80" height="2.171" class="a"/><g class="f"><svg width="10400" x="0" y="0"><svg x="0"><use xlink:href="#a"/></svg><svg x="80"><use xlink:href="#a"/></svg><svg x="160"><use xlink:href="#a"/></svg><svg x="240"><use xlink:href="#a"/></svg><svg x="320"><use xlink:href="#a"/><use y="0" xlink:href="#1"/></svg><svg x="400"><use xlink:href="#a"/><use y="0" xlink:href="#1"/></svg><svg x="480"><use xlink:href="#a"/><use y="0" xlink:href="#1"/></svg><svg x="560"><use xlink:href="#a"/><use y="0" xlink:href="#1"/></svg><svg x="640"><use xlink:href="#a"/><use y="0" xlink:href="#1"/></svg><svg x="720"><use xlink:href="#a"/><use y="0" xlink:href="#2"/></svg><svg x="800"><use xlink:href="#a"/><use y="0" xlink:href="#2"/></svg><svg x="880"><use xlink:href="#a"/><use y="0" xlink:href="#2"/></svg><svg x="960"><use xlink:href="#a"/><use y="0" xlink:href="#2"/></svg><svg x="1040"><use xlink:href="#a"/><use y="0" xlink:href="#2"/></svg><svg x="1120"><use xlink:href="#a"/><use y="0" xlink:href="#3"/></svg><svg x="1200"><use xlink:href="#a"/><use y="0" xlink:href="#3"/></svg><svg x="1280"><use xlink:href="#a"/><use y="0" xlink:href="#3"/></svg><svg x="1360"><use xlink:href="#a"/><use y="0" xlink:href="#3"/></svg><svg x="1440"><use xlink:href="#a"/><use y="0" xlink:href="#3"/></svg><svg x="1520"><use xlink:href="#a"/><use y="0" xlink:href="#4"/></svg><svg x="1600"><use xlink:href="#a"/><use y="0" xlink:href="#4"/></svg><svg x="1680"><use xlink:href="#a"/><use y="0" xlink:href="#4"/></svg><svg x="1760"><use xlink:href="#a"/><use y="0" xlink:href="#4"/></svg><svg x="1840"><use xlink:href="#a"/><use y="0" xlink:href="#4"/></svg><svg x="1920"><use xlink:href="#a"/><use y="0" xlink:href="#5"/></svg><svg x="2000"><use xlink:href="#a"/><use y="0" xlink:href="#5"/></svg><svg x="2080"><use xlink:href="#a"/><use y="0" xlink:href="#5"/></svg><svg x="2160"><use xlink:href="#a"/><use y="0" xlink:href="#5"/></svg><svg x="2240"><use xlink:href="#a"/><use y="0" xlink:href="#5"/></svg><svg x="2320"><use xlink:href="#a"/><use y="0" xlink:href="#6"/></svg><svg x="2400"><use xlink:href="#a"/><use y="0" xlink:href="#6"/></svg><svg x="2480"><use xlink:href="#a"/><use y="0" xlink:href="#6"/></svg><svg x="2560"><use xlink:href="#a"/><use y="0" xlink:href="#6"/></svg><svg x="2640"><use xlink:href="#a"/><use y="0" xlink:href="#6"/></svg><svg x="2720"><use xlink:href="#a"/><use y="0" xlink:href="#1"/></svg><svg x="2800"><use xlink:href="#a"/><use y="0" xlink:href="#1"/></svg><svg x="2880"><use xlink:href="#a"/><use y="0" xlink:href="#1"/></svg><svg x="2960"><use xlink:href="#a"/><use y="0" xlink:href="#1"/></svg><svg x="3040"><use xlink:href="#a"/><use y="0" xlink:href="#1"/></svg><svg x="3120"><use xlink:href="#a"/><use y="0" xlink:href="#2"/></svg><svg x="3200"><use xlink:href="#a"/><use y="0" xlink:href="#2"/></svg><svg x="3280"><use xlink:href="#a"/><use y="0" xlink:href="#2"/></svg><svg x="3360"><use xlink:href="#a"/><use y="0" xlink:href="#2"/></svg><svg x="3440"><use xlink:href="#a"/><use y="0" xlink:href="#2"/></svg><svg x="3520"><use xlink:href="#a"/><use y="0" xlink:href="#3"/></svg><svg x="3600"><use xlink:href="#a"/><use y="0" xlink:href="#3"/></svg><svg x="3680"><use xlink:href="#a"/><use y="0" xlink:href="#3"/></svg><svg x="3760"><use xlink:href="#a"/><use y="0" xlink:href="#3"/></svg><svg x="3840"><use xlink:href="#a"/><use y="0" xlink:href="#3"/></svg><svg x="3920"><use xlink:href="#a"/><use y="0" xlink:href="#4"/></svg><svg x="4000"><use xlink:href="#a"/><use y="0" xlink:href="#4"/></svg><svg x="4080"><use xlink:href="#a"/><use y="0" xlink:href="#4"/></svg><svg x="4160"><use xlink:href="#a"/><use y="0" xlink:href="#4"/></svg><svg x="4240"><use xlink:href="#a"/><use y="0" xlink:href="#4"/></svg><svg x="4320"><use xlink:href="#a"/><use y="0" xlink:href="#5"/></svg><svg x="4400"><use xlink:href="#a"/><use y="0" xlink:href="#5"/></svg><svg x="4480"><use xlink:href="#a"/><use y="0" xlink:href="#5"/></svg><svg x="4560"><use xlink:href="#a"/><use y="0" xlink:href="#5"/></svg><svg x="4640"><use xlink:href="#a"/><use y="0" xlink:href="#5"/></svg><svg x="4720"><use xlink:href="#a"/><use y="0" xlink:href="#6"/></svg><svg x="4800"><use xlink:href="#a"/><use y="0" xlink:href="#6"/></svg><svg x="4880"><use xlink:href="#a"/><use y="0" xlink:href="#6"/></svg><svg x="4960"><use xlink:href="#a"/><use y="0" xlink:href="#6"/></svg><svg x="5040"><use xlink:href="#a"/><use y="0" xlink:href="#6"/></svg><svg x="5120"><use xlink:href="#a"/><use y="0" xlink:href="#1"/></svg><svg x="5200"><use xlink:href="#a"/><use y="0" xlink:href="#1"/></svg><svg x="5280"><use xlink:href="#a"/><use y="0" xlink:href="#1"/></svg><svg x="5360"><use xlink:href="#a"/><use y="0" xlink:href="#1"/></svg><svg x="5440"><use xlink:href="#a"/><use y="0" xlink:href="#1"/></svg><svg x="5520"><use xlink:href="#a"/><use y="0" xlink:href="#2"/></svg><svg x="5600"><use xlink:href="#a"/><use y="0" xlink:href="#2"/></svg><svg x="5680"><use xlink:href="#a"/><use y="0" xlink:href="#2"/></svg><svg x="5760"><use xlink:href="#a"/><use y="0" xlink:href="#2"/></svg><svg x="5840"><use xlink:href="#a"/><use y="0" xlink:href="#2"/></svg><svg x="5920"><use xlink:href="#a"/><use y="0" xlink:href="#3"/></svg><svg x="6000"><use xlink:href="#a"/><use y="0" xlink:href="#3"/></svg><svg x="6080"><use xlink:href="#a"/><use y="0" xlink:href="#3"/></svg><svg x="6160"><use xlink:href="#a"/><use y="0" xlink:href="#3"/></svg><svg x="6240"><use xlink:href="#a"/><use y="0" xlink:href="#3"/></svg><svg x="6320"><use xlink:href="#a"/><use y="0" xlink:href="#4"/></svg><svg x="6400"><use xlink:href="#a"/><use y="0" xlink:href="#4"/></svg><svg x="6480"><use xlink:href="#a"/><use y="0" xlink:href="#4"/></svg><svg x="6560"><use xlink:href="#a"/><use y="0" xlink:href="#4"/></svg><svg x="6640"><use xlink:href="#a"/><use y="0" xlink:href="#4"/></svg><svg x="6720"><use xlink:href="#a"/><use y="0" xlink:href="#5"/></svg><svg x="6800"><use xlink:href="#a"/><use y="0" xlink:href="#5"/></svg><svg x="6880"><use xlink:href="#a"/><use y="0" xlink:href="#5"/></svg><svg x="6960"><use xlink:href="#a"/><use y="0" xlink:href="#5"/></svg><svg x="7040"><use xlink:href="#a"/><use y="0" xlink:href="#5"/></svg><svg x="7120"><use xlink:href="#a"/><use y="0" xlink:href="#6"/></svg><svg x="7200"><use xlink:href="#a"/><use y="0" xlink:href="#6"/></svg><svg x="7280"><use xlink:href="#a"/><use y="0" xlink:href="#6"/></svg><svg x="7360"><use xlink:href="#a"/><use y="0" xlink:href="#6"/></svg><svg x="7440"><use xlink:href="#a"/><use y="0" xlink:href="#6"/></svg><svg x="7520"><use xlink:href="#a"/><use y="0" xlink:href="#1"/></svg><svg x="7600"><use xlink:href="#a"/><use y="0" xlink:href="#1"/></svg><svg x="7680"><use xlink:href="#a"/><use y="0" xlink:href="#1"/></svg><svg x="7760"><use xlink:href="#a"/><use y="0" xlink:href="#1"/></svg><svg x="7840"><use xlink:href="#a"/><use y="0" xlink:href="#1"/></svg><svg x="7920"><use xlink:href="#a"/><use y="0" xlink:href="#2"/></svg><svg x="8000"><use xlink:href="#a"/><use y="0" xlink:href="#2"/></svg><svg x="8080"><use xlink:href="#a"/><use y="0" xlink:href="#2"/></svg><svg x="8160"><use xlink:href="#a"/><use y="0" xlink:href="#2"/></svg><svg x="8240"><use xlink:href="#a"/><use y="0" xlink:href="#2"/></svg><svg x="8320"><use xlink:href="#a"/><use y="0" xlink:href="#3"/></svg><svg x="8400"><use xlink:href="#a"/><use y="0" xlink:href="#3"/></svg><svg x="8480"><use xlink:href="#a"/><use y="0" xlink:href="#3"/></svg><svg x="8560"><use xlink:href="#a"/><use y="0" xlink:href="#3"/></svg><svg x="8640"><use xlink:href="#a"/><use y="0" xlink:href="#3"/></svg><svg x="8720"><use xlink:href="#a"/><use y="0" xlink:href="#4"/></svg><svg x="8800"><use xlink:href="#a"/><use y="0" xlink:href="#4"/></svg><svg x="8880"><use xlink:href="#a"/><use y="0" xlink:href="#4"/></svg><svg x="8960"><use xlink:href="#a"/><use y="0" xlink:href="#4"/></svg><svg x="9040"><use xlink:href="#a"/><use y="0" xlink:href="#4"/></svg><svg x="9120"><use xlink:href="#a"/><use y="0" xlink:href="#5"/></svg><svg x="9200"><use xlink:href="#a"/><use y="0" xlink:href="#5"/></svg><svg x="9280"><use xlink:href="#a"/><use y="0" xlink:href="#5"/></svg><svg x="9360"><use xlink:href="#a"/><use y="0" xlink:href="#5"/></svg><svg x="9440"><use xlink:href="#a"/><use y="0" xlink:href="#5"/></svg><svg x="9520"><use xlink:href="#a"/><use y="0" xlink:href="#6"/></svg><svg x="9600"><use xlink:href="#a"/><use y="0" xlink:href="#6"/></svg><svg x="9680"><use xlink:href="#a"/><use y="0" xlink:href="#6"/></svg><svg x="9760"><use xlink:href="#a"/><use y="0" xlink:href="#6"/></svg><svg x="9840"><use xlink:href="#a"/><use y="0" xlink:href="#6"/></svg><svg x="9920"><use xlink:href="#a"/><use y="0" xlink:href="#1"/></svg><svg x="10000"><use xlink:href="#a"/><use y="0" xlink:href="#1"/></svg><svg x="10080"><use xlink:href="#a"/><use y="0" xlink:href="#1"/></svg><svg x="10160"><use xlink:href="#a"/></svg><svg x="10240"><use xlink:href="#a"/></svg><svg x="10320"><use xlink:href="#a"/></svg></svg></g></g></svg></svg>