<svg xmlns="http://www.w3.org/2000/svg" xmlns:xlink="http://www.w3.org/1999/xlink" width="840" height="126.84"><rect width="840" height="126.84" class="a" rx="0" ry="0"/><svg xmlns="http://www.w3.org/2000/svg" xmlns:xlink="http://www.w3.org/1999/xlink" width="800" height="86.84" x="20" y="20" viewBox="0 0 80 8.684"><style>@keyframes h{0%{transform:translateX(0)}.1%{transform:translateX(-80px)}.6%{transform:translateX(-240px)}1%{transform:translateX(-320px)}2.7%{transform:translateX(-400px)}5%{transform:translateX(-480px)}6.8%{transform:translateX(-560px)}8.6%{transform:translateX(-640px)}10.8%{transform:translateX(-720px)}12.6%{transform:translateX(-800px)}14.3%{transform:translateX(-880px)}16.4%{transform:translateX(-960px)}18.1%{transform:translateX(-1040px)}20.2%{transform:translateX(-1120px)}21.9%{transform:translateX(-1440px)}24%{transform:translateX(-1520px)}25.7%{transform:translateX(-1600px)}27.9%{transform:translateX(-1680px)}29.7%{transform:translateX(-1760px)}31.5%{transform:translateX(-1840px)}33.3%{transform:translateX(-1920px)}35.4%{transform:translateX(-2000px)}37.2%{transform:translateX(-2080px)}39%{transform:translateX(-2160px)}40.8%{transform:translateX(-2240px)}42.9%{transform:translateX(-2320px)}43.9%{transform:translateX(-2560px)}44%{transform:translateX(-2640px)}}.a{fill:#f1f3f5}.b{font-family:&apos;Fira Code&apos;,Monaco,Consolas,Menlo,&apos;Bitstream Vera Sans Mono&apos;,&apos;Powerline Symbols&apos;,monospace}.c{fill:#2aa198}.c,.d,.e,.f{white-space:pre}.d{fill:#172431}.e{fill:#859900}.f{fill:#002b36}.g{fill:transparent}.i{animation-duration:10.71678s;animation-iteration-count:infinite;animation-name:h;animation-timing-function:steps(1,end)}</style><g class="b" font-family="'Fira Code',Monaco,Consolas,Menlo,'Bitstream Vera Sans Mono','Powerline Symbols',monospace" font-size="1.67"><defs><symbol id="1"><text x="0" y="1.67" class="c" font-size="1.67">ℹ</text><text x="2.004" y="1.67" class="d" font-size="1.67">Before</text><text x="9.018" y="1.67" class="d" font-size="1.67">the</text><text x="13.026" y="1.67" class="d" font-size="1.67">progress</text><text x="22.044" y="1.67" class="d" font-size="1.67">bar</text></symbol><symbol id="2"><text x="0" y="1.67" class="d" font-size="1.67">Calculating</text><text x="12.024" y="1.67" class="e" font-size="1.67">████████████████</text><text x="28.056" y="1.67" class="f" font-size="1.67">███████████████</text><text x="46.092" y="1.67" class="d" font-size="1.67">50%</text><text x="50.1" y="1.67" class="d" font-size="1.67">|</text><text x="52.104" y="1.67" class="d" font-size="1.67">ETA:</text><text x="58.116" y="1.67" class="d" font-size="1.67">2s</text></symbol><symbol id="3"><text x="0" y="1.67" class="d" font-size="1.67">Already</text><text x="8.016" y="1.67" class="d" font-size="1.67">half</text><text x="13.026" y="1.67" class="d" font-size="1.67">way!</text></symbol><symbol id="4"><text x="0" y="1.67" class="d" font-size="1.67">Calculating</text><text x="12.024" y="1.67" class="e" font-size="1.67">███████████████████████████████</text><text x="45.09" y="1.67" class="d" font-size="1.67">100%</text><text x="50.1" y="1.67" class="d" font-size="1.67">|</text><text x="52.104" y="1.67" class="d" font-size="1.67">ETA:</text><text x="58.116" y="1.67" class="d" font-size="1.67">0s</text></symbol><symbol id="5"><text x="0" y="1.67" class="c" font-size="1.67">ℹ</text><text x="2.004" y="1.67" class="d" font-size="1.67">All</text><text x="6.012" y="1.67" class="d" font-size="1.67">done</text></symbol><symbol id="a"><rect width="80" height="4" x="0" y="0" class="g"/></symbol></defs><rect width="80" height="8.684" class="a"/><g class="i"><svg width="2800" x="0" y="0"><svg x="0"><use xlink:href="#a"/></svg><svg x="80"><use xlink:href="#a"/><use y="0" xlink:href="#1"/></svg><svg x="160"><use xlink:href="#a"/><use y="0" xlink:href="#1"/></svg><svg x="240"><use xlink:href="#a"/><use y="0" xlink:href="#1"/><text x="0" y="3.841" class="d" font-size="1.67">Calculating</text><text x="12.024" y="3.841" class="e" font-size="1.67">█</text><text x="13.026" y="3.841" class="f" font-size="1.67">██████████████████████████████</text><text x="47.094" y="3.841" class="d" font-size="1.67">1%</text><text x="50.1" y="3.841" class="d" font-size="1.67">|</text><text x="52.104" y="3.841" class="d" font-size="1.67">ETA:</text><text x="58.116" y="3.841" class="d" font-size="1.67">5s</text></svg><svg x="320"><use xlink:href="#a"/><use y="0" xlink:href="#1"/><text x="0" y="3.841" class="d" font-size="1.67">Calculating</text><text x="12.024" y="3.841" class="e" font-size="1.67">██</text><text x="14.028" y="3.841" class="f" font-size="1.67">█████████████████████████████</text><text x="47.094" y="3.841" class="d" font-size="1.67">2%</text><text x="50.1" y="3.841" class="d" font-size="1.67">|</text><text x="52.104" y="3.841" class="d" font-size="1.67">ETA:</text><text x="58.116" y="3.841" class="d" font-size="1.67">5s</text></svg><svg x="400"><use xlink:href="#a"/><use y="0" xlink:href="#1"/><text x="0" y="3.841" class="d" font-size="1.67">Calculating</text><text x="12.024" y="3.841" class="e" font-size="1.67">███</text><text x="15.03" y="3.841" class="f" font-size="1.67">████████████████████████████</text><text x="47.094" y="3.841" class="d" font-size="1.67">6%</text><text x="50.1" y="3.841" class="d" font-size="1.67">|</text><text x="52.104" y="3.841" class="d" font-size="1.67">ETA:</text><text x="58.116" y="3.841" class="d" font-size="1.67">4s</text></svg><svg x="480"><use xlink:href="#a"/><use y="0" xlink:href="#1"/><text x="0" y="3.841" class="d" font-size="1.67">Calculating</text><text x="12.024" y="3.841" class="e" font-size="1.67">████</text><text x="16.032" y="3.841" class="f" font-size="1.67">███████████████████████████</text><text x="46.092" y="3.841" class="d" font-size="1.67">11%</text><text x="50.1" y="3.841" class="d" font-size="1.67">|</text><text x="52.104" y="3.841" class="d" font-size="1.67">ETA:</text><text x="58.116" y="3.841" class="d" font-size="1.67">4s</text></svg><svg x="560"><use xlink:href="#a"/><use y="0" xlink:href="#1"/><text x="0" y="3.841" class="d" font-size="1.67">Calculating</text><text x="12.024" y="3.841" class="e" font-size="1.67">█████</text><text x="17.034" y="3.841" class="f" font-size="1.67">██████████████████████████</text><text x="46.092" y="3.841" class="d" font-size="1.67">15%</text><text x="50.1" y="3.841" class="d" font-size="1.67">|</text><text x="52.104" y="3.841" class="d" font-size="1.67">ETA:</text><text x="58.116" y="3.841" class="d" font-size="1.67">4s</text></svg><svg x="640"><use xlink:href="#a"/><use y="0" xlink:href="#1"/><text x="0" y="3.841" class="d" font-size="1.67">Calculating</text><text x="12.024" y="3.841" class="e" font-size="1.67">███████</text><text x="19.038" y="3.841" class="f" font-size="1.67">████████████████████████</text><text x="46.092" y="3.841" class="d" font-size="1.67">19%</text><text x="50.1" y="3.841" class="d" font-size="1.67">|</text><text x="52.104" y="3.841" class="d" font-size="1.67">ETA:</text><text x="58.116" y="3.841" class="d" font-size="1.67">4s</text></svg><svg x="720"><use xlink:href="#a"/><use y="0" xlink:href="#1"/><text x="0" y="3.841" class="d" font-size="1.67">Calculating</text><text x="12.024" y="3.841" class="e" font-size="1.67">████████</text><text x="20.04" y="3.841" class="f" font-size="1.67">███████████████████████</text><text x="46.092" y="3.841" class="d" font-size="1.67">24%</text><text x="50.1" y="3.841" class="d" font-size="1.67">|</text><text x="52.104" y="3.841" class="d" font-size="1.67">ETA:</text><text x="58.116" y="3.841" class="d" font-size="1.67">4s</text></svg><svg x="800"><use xlink:href="#a"/><use y="0" xlink:href="#1"/><text x="0" y="3.841" class="d" font-size="1.67">Calculating</text><text x="12.024" y="3.841" class="e" font-size="1.67">█████████</text><text x="21.042" y="3.841" class="f" font-size="1.67">██████████████████████</text><text x="46.092" y="3.841" class="d" font-size="1.67">28%</text><text x="50.1" y="3.841" class="d" font-size="1.67">|</text><text x="52.104" y="3.841" class="d" font-size="1.67">ETA:</text><text x="58.116" y="3.841" class="d" font-size="1.67">3s</text></svg><svg x="880"><use xlink:href="#a"/><use y="0" xlink:href="#1"/><text x="0" y="3.841" class="d" font-size="1.67">Calculating</text><text x="12.024" y="3.841" class="e" font-size="1.67">███████████</text><text x="23.046" y="3.841" class="f" font-size="1.67">████████████████████</text><text x="46.092" y="3.841" class="d" font-size="1.67">32%</text><text x="50.1" y="3.841" class="d" font-size="1.67">|</text><text x="52.104" y="3.841" class="d" font-size="1.67">ETA:</text><text x="58.116" y="3.841" class="d" font-size="1.67">3s</text></svg><svg x="960"><use xlink:href="#a"/><use y="0" xlink:href="#1"/><text x="0" y="3.841" class="d" font-size="1.67">Calculating</text><text x="12.024" y="3.841" class="e" font-size="1.67">████████████</text><text x="24.048" y="3.841" class="f" font-size="1.67">███████████████████</text><text x="46.092" y="3.841" class="d" font-size="1.67">37%</text><text x="50.1" y="3.841" class="d" font-size="1.67">|</text><text x="52.104" y="3.841" class="d" font-size="1.67">ETA:</text><text x="58.116" y="3.841" class="d" font-size="1.67">3s</text></svg><svg x="1040"><use xlink:href="#a"/><use y="0" xlink:href="#1"/><text x="0" y="3.841" class="d" font-size="1.67">Calculating</text><text x="12.024" y="3.841" class="e" font-size="1.67">█████████████</text><text x="25.05" y="3.841" class="f" font-size="1.67">██████████████████</text><text x="46.092" y="3.841" class="d" font-size="1.67">41%</text><text x="50.1" y="3.841" class="d" font-size="1.67">|</text><text x="52.104" y="3.841" class="d" font-size="1.67">ETA:</text><text x="58.116" y="3.841" class="d" font-size="1.67">3s</text></svg><svg x="1120"><use xlink:href="#a"/><use y="0" xlink:href="#1"/><text x="0" y="3.841" class="d" font-size="1.67">Calculating</text><text x="12.024" y="3.841" class="e" font-size="1.67">███████████████</text><text x="27.054" y="3.841" class="f" font-size="1.67">████████████████</text><text x="46.092" y="3.841" class="d" font-size="1.67">46%</text><text x="50.1" y="3.841" class="d" font-size="1.67">|</text><text x="52.104" y="3.841" class="d" font-size="1.67">ETA:</text><text x="58.116" y="3.841" class="d" font-size="1.67">3s</text></svg><svg x="1200"><use xlink:href="#a"/><use y="0" xlink:href="#1"/><use y="2.171" xlink:href="#2"/></svg><svg x="1280"><use xlink:href="#a"/><use y="0" xlink:href="#1"/></svg><svg x="1360"><use xlink:href="#a"/><use y="0" xlink:href="#1"/><use y="2.171" xlink:href="#3"/></svg><svg x="1440"><use xlink:href="#a"/><use y="0" xlink:href="#1"/><use y="2.171" xlink:href="#3"/><use y="4.342" xlink:href="#2"/></svg><svg x="1520"><use xlink:href="#a"/><use y="0" xlink:href="#1"/><use y="2.171" xlink:href="#3"/><text x="0" y="6.012" class="d" font-size="1.67">Calculating</text><text x="12.024" y="6.012" class="e" font-size="1.67">█████████████████</text><text x="29.058" y="6.012" class="f" font-size="1.67">██████████████</text><text x="46.092" y="6.012" class="d" font-size="1.67">55%</text><text x="50.1" y="6.012" class="d" font-size="1.67">|</text><text x="52.104" y="6.012" class="d" font-size="1.67">ETA:</text><text x="58.116" y="6.012" class="d" font-size="1.67">2s</text></svg><svg x="1600"><use xlink:href="#a"/><use y="0" xlink:href="#1"/><use y="2.171" xlink:href="#3"/><text x="0" y="6.012" class="d" font-size="1.67">Calculating</text><text x="12.024" y="6.012" class="e" font-size="1.67">███████████████████</text><text x="31.062" y="6.012" class="f" font-size="1.67">████████████</text><text x="46.092" y="6.012" class="d" font-size="1.67">59%</text><text x="50.1" y="6.012" class="d" font-size="1.67">|</text><text x="52.104" y="6.012" class="d" font-size="1.67">ETA:</text><text x="58.116" y="6.012" class="d" font-size="1.67">2s</text></svg><svg x="1680"><use xlink:href="#a"/><use y="0" xlink:href="#1"/><use y="2.171" xlink:href="#3"/><text x="0" y="6.012" class="d" font-size="1.67">Calculating</text><text x="12.024" y="6.012" class="e" font-size="1.67">████████████████████</text><text x="32.064" y="6.012" class="f" font-size="1.67">███████████</text><text x="46.092" y="6.012" class="d" font-size="1.67">64%</text><text x="50.1" y="6.012" class="d" font-size="1.67">|</text><text x="52.104" y="6.012" class="d" font-size="1.67">ETA:</text><text x="58.116" y="6.012" class="d" font-size="1.67">2s</text></svg><svg x="1760"><use xlink:href="#a"/><use y="0" xlink:href="#1"/><use y="2.171" xlink:href="#3"/><text x="0" y="6.012" class="d" font-size="1.67">Calculating</text><text x="12.024" y="6.012" class="e" font-size="1.67">█████████████████████</text><text x="33.066" y="6.012" class="f" font-size="1.67">██████████</text><text x="46.092" y="6.012" class="d" font-size="1.67">68%</text><text x="50.1" y="6.012" class="d" font-size="1.67">|</text><text x="52.104" y="6.012" class="d" font-size="1.67">ETA:</text><text x="58.116" y="6.012" class="d" font-size="1.67">1s</text></svg><svg x="1840"><use xlink:href="#a"/><use y="0" xlink:href="#1"/><use y="2.171" xlink:href="#3"/><text x="0" y="6.012" class="d" font-size="1.67">Calculating</text><text x="12.024" y="6.012" class="e" font-size="1.67">███████████████████████</text><text x="35.07" y="6.012" class="f" font-size="1.67">████████</text><text x="46.092" y="6.012" class="d" font-size="1.67">72%</text><text x="50.1" y="6.012" class="d" font-size="1.67">|</text><text x="52.104" y="6.012" class="d" font-size="1.67">ETA:</text><text x="58.116" y="6.012" class="d" font-size="1.67">1s</text></svg><svg x="1920"><use xlink:href="#a"/><use y="0" xlink:href="#1"/><use y="2.171" xlink:href="#3"/><text x="0" y="6.012" class="d" font-size="1.67">Calculating</text><text x="12.024" y="6.012" class="e" font-size="1.67">████████████████████████</text><text x="36.072" y="6.012" class="f" font-size="1.67">███████</text><text x="46.092" y="6.012" class="d" font-size="1.67">76%</text><text x="50.1" y="6.012" class="d" font-size="1.67">|</text><text x="52.104" y="6.012" class="d" font-size="1.67">ETA:</text><text x="58.116" y="6.012" class="d" font-size="1.67">1s</text></svg><svg x="2000"><use xlink:href="#a"/><use y="0" xlink:href="#1"/><use y="2.171" xlink:href="#3"/><text x="0" y="6.012" class="d" font-size="1.67">Calculating</text><text x="12.024" y="6.012" class="e" font-size="1.67">█████████████████████████</text><text x="37.074" y="6.012" class="f" font-size="1.67">██████</text><text x="46.092" y="6.012" class="d" font-size="1.67">81%</text><text x="50.1" y="6.012" class="d" font-size="1.67">|</text><text x="52.104" y="6.012" class="d" font-size="1.67">ETA:</text><text x="58.116" y="6.012" class="d" font-size="1.67">1s</text></svg><svg x="2080"><use xlink:href="#a"/><use y="0" xlink:href="#1"/><use y="2.171" xlink:href="#3"/><text x="0" y="6.012" class="d" font-size="1.67">Calculating</text><text x="12.024" y="6.012" class="e" font-size="1.67">███████████████████████████</text><text x="39.078" y="6.012" class="f" font-size="1.67">████</text><text x="46.092" y="6.012" class="d" font-size="1.67">85%</text><text x="50.1" y="6.012" class="d" font-size="1.67">|</text><text x="52.104" y="6.012" class="d" font-size="1.67">ETA:</text><text x="58.116" y="6.012" class="d" font-size="1.67">1s</text></svg><svg x="2160"><use xlink:href="#a"/><use y="0" xlink:href="#1"/><use y="2.171" xlink:href="#3"/><text x="0" y="6.012" class="d" font-size="1.67">Calculating</text><text x="12.024" y="6.012" class="e" font-size="1.67">████████████████████████████</text><text x="40.08" y="6.012" class="f" font-size="1.67">███</text><text x="46.092" y="6.012" class="d" font-size="1.67">89%</text><text x="50.1" y="6.012" class="d" font-size="1.67">|</text><text x="52.104" y="6.012" class="d" font-size="1.67">ETA:</text><text x="58.116" y="6.012" class="d" font-size="1.67">1s</text></svg><svg x="2240"><use xlink:href="#a"/><use y="0" xlink:href="#1"/><use y="2.171" xlink:href="#3"/><text x="0" y="6.012" class="d" font-size="1.67">Calculating</text><text x="12.024" y="6.012" class="e" font-size="1.67">█████████████████████████████</text><text x="41.082" y="6.012" class="f" font-size="1.67">██</text><text x="46.092" y="6.012" class="d" font-size="1.67">93%</text><text x="50.1" y="6.012" class="d" font-size="1.67">|</text><text x="52.104" y="6.012" class="d" font-size="1.67">ETA:</text><text x="58.116" y="6.012" class="d" font-size="1.67">0s</text></svg><svg x="2320"><use xlink:href="#a"/><use y="0" xlink:href="#1"/><use y="2.171" xlink:href="#3"/><text x="0" y="6.012" class="d" font-size="1.67">Calculating</text><text x="12.024" y="6.012" class="e" font-size="1.67">██████████████████████████████</text><text x="42.084" y="6.012" class="f" font-size="1.67">█</text><text x="46.092" y="6.012" class="d" font-size="1.67">98%</text><text x="50.1" y="6.012" class="d" font-size="1.67">|</text><text x="52.104" y="6.012" class="d" font-size="1.67">ETA:</text><text x="58.116" y="6.012" class="d" font-size="1.67">0s</text></svg><svg x="2400"><use xlink:href="#a"/><use y="0" xlink:href="#1"/><use y="2.171" xlink:href="#3"/><use y="4.342" xlink:href="#4"/></svg><svg x="2480"><use xlink:href="#a"/><use y="0" xlink:href="#1"/><use y="2.171" xlink:href="#3"/><use y="4.342" xlink:href="#4"/></svg><svg x="2560"><use xlink:href="#a"/><use y="0" xlink:href="#1"/><use y="2.171" xlink:href="#3"/><use y="4.342" xlink:href="#4"/></svg><svg x="2640"><use xlink:href="#a"/><use y="0" xlink:href="#1"/><use y="2.171" xlink:href="#3"/><use y="4.342" xlink:href="#4"/><use y="6.513" xlink:href="#5"/></svg><svg x="2720"><use xlink:href="#a"/><use y="0" xlink:href="#1"/><use y="2.171" xlink:href="#3"/><use y="4.342" xlink:href="#4"/><use y="6.513" xlink:href="#5"/></svg></svg></g></g></svg></svg>