<svg xmlns="http://www.w3.org/2000/svg" xmlns:xlink="http://www.w3.org/1999/xlink" width="840" height="61.71"><rect width="840" height="61.71" class="a" rx="0" ry="0"/><svg xmlns="http://www.w3.org/2000/svg" xmlns:xlink="http://www.w3.org/1999/xlink" width="800" height="21.71" x="20" y="20" viewBox="0 0 80 2.171"><style>@keyframes e{0%{transform:translateX(0)}.1%{transform:translateX(-160px)}16%{transform:translateX(-320px)}16.1%{transform:translateX(-480px)}32%{transform:translateX(-640px)}32.1%{transform:translateX(-800px)}36.2%{transform:translateX(-880px)}40.2%{transform:translateX(-960px)}44.3%{transform:translateX(-1040px)}48.4%{transform:translateX(-1120px)}52.4%{transform:translateX(-1360px)}}.a{fill:#f1f3f5}.b{font-family:&apos;Fira Code&apos;,Monaco,Consolas,Menlo,&apos;Bitstream Vera Sans Mono&apos;,&apos;Powerline Symbols&apos;,monospace}.c{fill:#172431;white-space:pre}.d{fill:transparent}.f{animation-duration:12.612789s;animation-iteration-count:infinite;animation-name:e;animation-timing-function:steps(1,end)}</style><g class="b" font-family="'Fira Code',Monaco,Consolas,Menlo,'Bitstream Vera Sans Mono','Powerline Symbols',monospace" font-size="1.67"><defs><symbol id="1"><text x="0" y="1.67" class="c" font-size="1.67">Task</text><text x="5.01" y="1.67" class="c" font-size="1.67">three</text><text x="11.022" y="1.67" class="c" font-size="1.67">is</text><text x="14.028" y="1.67" class="c" font-size="1.67">underway:</text><text x="24.048" y="1.67" class="c" font-size="1.67">step</text><text x="29.058" y="1.67" class="c" font-size="1.67">1</text></symbol><symbol id="a"><rect width="80" height="1" x="0" y="0" class="d"/></symbol></defs><rect width="80" height="2.171" class="a"/><g class="f"><svg width="1520" x="0" y="0"><svg x="0"><use xlink:href="#a"/></svg><svg x="80"><use xlink:href="#a"/></svg><svg x="160"><use xlink:href="#a"/><text x="0" y="1.67" class="c" font-size="1.67">Task</text><text x="5.01" y="1.67" class="c" font-size="1.67">one</text><text x="9.018" y="1.67" class="c" font-size="1.67">is</text><text x="12.024" y="1.67" class="c" font-size="1.67">running...</text></svg><svg x="240"><use xlink:href="#a"/></svg><svg x="320"><use xlink:href="#a"/></svg><svg x="400"><use xlink:href="#a"/></svg><svg x="480"><use xlink:href="#a"/><text x="0" y="1.67" class="c" font-size="1.67">Task</text><text x="5.01" y="1.67" class="c" font-size="1.67">two</text><text x="9.018" y="1.67" class="c" font-size="1.67">is</text><text x="12.024" y="1.67" class="c" font-size="1.67">running...</text></svg><svg x="560"><use xlink:href="#a"/></svg><svg x="640"><use xlink:href="#a"/></svg><svg x="720"><use xlink:href="#a"/></svg><svg x="800"><use xlink:href="#a"/><use y="0" xlink:href="#1"/></svg><svg x="880"><use xlink:href="#a"/><use y="0" xlink:href="#1"/></svg><svg x="960"><use xlink:href="#a"/><text x="0" y="1.67" class="c" font-size="1.67">Task</text><text x="5.01" y="1.67" class="c" font-size="1.67">three</text><text x="11.022" y="1.67" class="c" font-size="1.67">is</text><text x="14.028" y="1.67" class="c" font-size="1.67">underway:</text><text x="24.048" y="1.67" class="c" font-size="1.67">step</text><text x="29.058" y="1.67" class="c" font-size="1.67">2</text></svg><svg x="1040"><use xlink:href="#a"/><text x="0" y="1.67" class="c" font-size="1.67">Task</text><text x="5.01" y="1.67" class="c" font-size="1.67">three</text><text x="11.022" y="1.67" class="c" font-size="1.67">is</text><text x="14.028" y="1.67" class="c" font-size="1.67">underway:</text><text x="24.048" y="1.67" class="c" font-size="1.67">step</text><text x="29.058" y="1.67" class="c" font-size="1.67">3</text></svg><svg x="1120"><use xlink:href="#a"/><text x="0" y="1.67" class="c" font-size="1.67">Task</text><text x="5.01" y="1.67" class="c" font-size="1.67">three</text><text x="11.022" y="1.67" class="c" font-size="1.67">is</text><text x="14.028" y="1.67" class="c" font-size="1.67">underway:</text><text x="24.048" y="1.67" class="c" font-size="1.67">step</text><text x="29.058" y="1.67" class="c" font-size="1.67">4</text></svg><svg x="1200"><use xlink:href="#a"/><text x="0" y="1.67" class="c" font-size="1.67">Task</text><text x="5.01" y="1.67" class="c" font-size="1.67">three</text><text x="11.022" y="1.67" class="c" font-size="1.67">is</text><text x="14.028" y="1.67" class="c" font-size="1.67">underway:</text><text x="24.048" y="1.67" class="c" font-size="1.67">step</text><text x="29.058" y="1.67" class="c" font-size="1.67">5</text></svg><svg x="1280"><use xlink:href="#a"/></svg><svg x="1360"><use xlink:href="#a"/></svg><svg x="1440"><use xlink:href="#a"/></svg></svg></g></g></svg></svg>